<?xml version="1.0" encoding="utf-8"?>
<!-- Generator: Adobe Illustrator 25.0.0, SVG Export Plug-In . SVG Version: 6.00 Build 0)  -->
<svg version="1.1" id="layer" xmlns="http://www.w3.org/2000/svg" xmlns:xlink="http://www.w3.org/1999/xlink" x="0px" y="0px"
	 viewBox="0 0 652 62.4" style="enable-background:new 0 0 652 62.4;" xml:space="preserve">
<style type="text/css">
	.st0{fill:#FFFFFF;}
</style>
<polygon class="st0" points="144.6,19.4 145.1,17.4 143.8,16.1 140.1,18.3 137.6,17.4 136.3,13.1 134.3,13.3 134.6,15.5 134.1,15.9 
	132.8,14 133.3,12.3 132.4,9.3 129.6,6.9 127.7,6.9 126,4.6 124.5,5.4 126.6,7.8 126.6,8.6 132.4,17.4 132.2,20.2 131.3,23.4 
	129,25.1 129,26.4 132.6,28.1 133.5,29.6 131.3,33.7 132,34.6 133.3,34.6 133.9,35.4 135.6,34.4 138.4,29.9 139.9,26.4 139.5,25.6 
	140.3,23.6 141.9,23.6 142.1,24.5 143.4,23.9 143.4,21.9 144.4,21.3 "/>
<path class="st0" d="M115.1,13.1c0-1.1,0.4-1.9,1.3-1.9s1.3,0.6,1.3,1.9v7.1c0,1.1-0.4,1.9-1.3,1.9s-1.3-0.6-1.3-1.9V13.1z
	 M108.2,9.7v14.1l4.5,4.3h7.5l4.5-4.3V9.7l-4.5-4.3h-7.5L108.2,9.7z"/>
<polygon class="st0" points="118.9,56.2 120.2,55.8 120.2,54.7 121.7,51.3 123,47.6 124.7,46.1 126.4,46.6 127.3,46.4 127.5,45.5 
	126.4,44.2 126.8,43.4 128.6,41.2 128.8,39.7 129.8,39.3 130.9,36.7 130.7,35.9 130.9,35 130.7,34.6 130.9,33.5 129.6,33.1 
	127.5,34.4 127.5,34.4 127.5,33.3 126.8,32.9 126.4,33.1 126.4,32.9 126.6,32.2 126.8,31.8 126.6,31.1 124.3,33.1 123.2,36.7 
	121.7,37.8 120.8,41.2 114.4,47.4 112.3,48.1 109.5,52.1 107.6,56.7 108.6,58.2 110.8,57.5 111.4,58.4 112.7,58.4 112.7,59 
	114.8,59.2 117,58.2 "/>
<path class="st0" d="M142.7,50.6c0,1.1-0.4,1.9-1.3,1.9c-0.9,0-1.3-0.6-1.3-1.9v-7.1c0-1.1,0.4-1.9,1.3-1.9c0.9,0,1.3,0.6,1.3,1.9
	V50.6z M149.6,54.3V40.2l-4.5-4.3h-7.5l-4.5,4.3v14.1l4.5,4.3h7.5L149.6,54.3z"/>
<polygon class="st0" points="111.4,59.4 110.8,59.7 111,60.7 109.7,62.2 110.1,62.4 112.7,61.8 113.1,60.7 112.7,60.5 "/>
<polygon class="st0" points="26.1,58.6 38.1,58.6 38.1,5.2 31.9,5.2 27.8,9.3 21,9.3 21,19.8 26.1,19.8 "/>
<path class="st0" d="M50.3,5.2l-7.5,7.5v38.4l7.5,7.5h13.5l7.5-7.5V12.7l-7.5-7.5H50.3z M59.3,47c0,1.3-0.9,2.1-1.9,2.1h-0.9
	c-1.1,0-1.9-0.9-1.9-2.1V17c0-1.3,0.9-2.1,1.9-2.1h0.9c1.1,0,1.9,0.9,1.9,2.1V47z"/>
<path class="st0" d="M96.8,58.6l7.5-7.5V12.7l-7.5-7.5H83.3l-7.5,7.5v38.4l7.5,7.5C83.3,58.6,96.8,58.6,96.8,58.6z M87.8,16.8
	c0-1.3,0.9-2.1,1.9-2.1h0.9c1.1,0,1.9,0.9,1.9,2.1v30c0,1.3-0.9,2.1-1.9,2.1h-0.9c-1.1,0-1.9-0.9-1.9-2.1V16.8z"/>
<path class="st0" d="M163.3,5.2v53.4h12V39.7h8.8l7.5-7.5V12.7l-7.5-7.5H163.3z M179.6,28.4c0,1.3-0.9,1.9-1.9,1.9h-2.4V14.9h2.4
	c1.1,0,1.9,0.6,1.9,1.9V28.4z"/>
<path class="st0" d="M195.4,5.2v45.9l7.5,7.5h13.5l7.5-7.5V5.2h-12V47c0,1.3-0.9,2.1-1.9,2.1h-0.9c-1.1,0-1.9-0.9-1.9-2.1V5.2H195.4
	z"/>
<path class="st0" d="M256.7,12.7l-7.5-7.5h-20.8v53.4h12V38.2h2.4c1.1,0,1.9,0.6,1.9,1.9v13.3l0.6,5.1h12l-0.6-5.8V38.1l-5.4-5.1
	l5.4-5.1L256.7,12.7L256.7,12.7z M244.7,26c0,1.3-0.9,1.9-1.9,1.9h-2.4V14.8h2.4c1.1,0,1.9,0.6,1.9,1.9V26z"/>
<polygon class="st0" points="261.5,58.6 284,58.6 284,48.3 273.3,48.3 273.3,36.7 283.1,36.7 283.1,26.4 273.3,26.4 273.3,15.5 
	284,15.5 284,5.2 261.5,5.2 "/>
<polygon class="st0" points="314,26.9 313.3,26.9 308.4,5.2 297,5.2 297,58.6 308.2,58.6 308.2,35.6 308.8,35.6 314.8,58.6 
	325.1,58.6 325.1,5.2 314,5.2 "/>
<polygon class="st0" points="329.6,58.6 352.4,58.6 352.4,48.3 341.6,48.3 341.6,36.7 351.5,36.7 351.5,26.4 341.6,26.4 341.6,15.5 
	352.4,15.5 352.4,5.2 329.6,5.2 "/>
<polygon class="st0" points="411.1,15.5 422.5,15.5 411.1,49.1 411.1,58.6 435.5,58.6 435.5,48.3 424.4,48.3 435.5,14.9 435.5,5.2 
	411.1,5.2 "/>
<polygon class="st0" points="439.4,58.6 461.9,58.6 461.9,48.3 451.4,48.3 451.4,36.7 461,36.7 461,26.4 451.4,26.4 451.4,15.5 
	461.9,15.5 461.9,5.2 439.4,5.2 "/>
<polygon class="st0" points="500.3,5.2 500.3,58.6 521.7,58.6 521.7,48.3 512.1,48.3 512.1,5.2 "/>
<polygon class="st0" points="577,26.9 576.4,26.9 571.4,5.2 560.1,5.2 560.1,58.6 571.2,58.6 571.2,35.6 571.9,35.6 577.9,58.6 
	588.2,58.6 588.2,5.2 577,5.2 "/>
<path class="st0" d="M592.7,58.6h20.8l7.5-7.5V12.7l-7.5-7.5h-20.8V58.6z M604.7,14.9h2.6c1.1,0,1.9,0.6,1.9,1.9v30.4
	c0,1.3-0.9,1.9-1.9,1.9h-2.6V14.9z"/>
<polygon class="st0" points="384.5,29.9 383.9,29.9 381.3,5.2 372.7,5.2 370.1,29.9 369.5,29.9 366.9,5.2 355.6,5.2 362.4,58.6 
	373.1,58.6 376.4,35.4 376.8,35.4 379.8,58.6 390.7,58.6 397.6,5.2 387.1,5.2 "/>
<path class="st0" d="M473.3,5.2l-8.6,53.4h11.6l1.1-8.6h7.1l1.1,8.6h12L489,5.2C488.9,5.2,473.3,5.2,473.3,5.2z M478.4,40.4
	l2.1-17.4h0.4l2.1,17.4H478.4z"/>
<path class="st0" d="M533.1,5.2l-8.6,53.4h11.6l1.1-8.6h7.1l1.1,8.6h12l-8.6-53.4C548.7,5.2,533.1,5.2,533.1,5.2z M538.2,40.4
	l2.1-17.4h0.4l2.1,17.4H538.2z"/>
</svg>
